Coordinates
version=1
nRows=29
nColumns=24
inDegrees=yes

Units are S.I. units (second, meters, Newtons, ...)
Angles are in degrees.

endheader
time	pelvis_tilt	pelvis_list	pelvis_rotation	pelvis_tx	pelvis_ty	pelvis_tz	hip_flexion_r	hip_adduction_r	hip_rotation_r	knee_angle_r	ankle_angle_r	subtalar_angle_r	mtp_angle_r	hip_flexion_l	hip_adduction_l	hip_rotation_l	knee_angle_l	ankle_angle_l	subtalar_angle_l	mtp_angle_l	lumbar_extension	lumbar_bending	lumbar_rotation
      4.67500000	     -1.07408404	      7.00441118	     -1.04582389	     -0.44743446	      0.93208435	      0.26192220	     21.21755165	     -6.51812300	     -0.00643616	    -69.01317969	     12.33662271	    -16.74274083	      0.00000000	     15.08316358	     13.71246855	      4.13418064	    -25.24937446	     17.66165550	    -16.39340046	      0.00000000	     -9.00383614	    -10.85065998	     -9.84518248
      4.68000000	     -0.94333170	      6.75122701	     -0.87182906	     -0.44033370	      0.93359911	      0.26146833	     21.73270720	     -6.31083670	     -0.15192954	    -68.17988518	     12.70125521	    -16.55265449	      0.00000000	     14.08766302	     13.60157808	      4.85867355	    -24.66589545	     17.60186732	    -16.91209638	      0.00000000	     -9.17195660	    -10.46572126	    -10.00820103
      4.68500000	     -0.83374375	      6.49150948	     -0.68219958	     -0.43325055	      0.93503411	      0.26101585	     22.23107019	     -6.10237584	     -0.32681316	    -67.24096838	     13.01288816	    -16.40271098	      0.00000000	     13.12312949	     13.46820816	      5.55686607	    -24.09026073	     17.51656272	    -17.42328220	      0.00000000	     -9.31332390	    -10.07222355	    -10.16959408
      4.69000000	     -0.73281164	      6.23988182	     -0.48439088	     -0.42617996	      0.93637819	      0.26056603	     22.70728114	     -5.90612849	     -0.51662247	    -66.21244910	     13.26673579	    -16.29431567	      0.00000000	     12.16950091	     13.33075438	      6.25743507	    -23.51219243	     17.42731936	    -17.93164520	      0.00000000	     -9.44302022	     -9.68851840	    -10.33823195
      4.69500000	     -0.64195962	      5.99825448	     -0.27925152	     -0.41913028	      0.93762366	      0.26012113	     23.16236428	     -5.72323872	     -0.71740755	    -65.09477097	     13.47447267	    -16.22587307	      0.00000000	     11.23050011	     13.18991393	      6.95105185	    -22.93420784	     17.33965827	    -18.42742030	      0.00000000	     -9.56054263	     -9.31633721	    -10.51579882
      4.70000000	     -0.57279136	      5.75872881	     -0.06325945	     -0.41210115	      0.93876743	      0.25968754	     23.60136604	     -5.54417615	     -0.93397512	    -63.87757504	     13.65615320	    -16.20106128	      0.00000000	     10.32919650	     13.03345891	      7.60624653	    -22.37340758	     17.24716777	    -18.88816641	      0.00000000	     -9.65300907	     -8.94775298	    -10.68639599
      4.70500000	     -0.48947276	      5.54743204	      0.15058329	     -0.40507873	      0.93981443	      0.25925581	     24.00515804	     -5.39770294	     -1.14304879	    -62.59847452	     13.78424799	    -16.18462995	      0.00000000	      9.39801171	     12.89751488	      8.30210916	    -21.78203550	     17.18131256	    -19.36138289	      0.00000000	     -9.76045554	     -8.61473597	    -10.89501936
      4.71000000	     -0.44285457	      5.32990861	      0.37632708	     -0.39808398	      0.94073671	      0.25883804	     24.40372790	     -5.24618508	     -1.37214166	    -61.21231698	     13.90871824	    -16.21997109	      0.00000000	      8.53442132	     12.73554028	      8.92461981	    -21.23013254	     17.11925092	    -19.77992328	      0.00000000	     -9.82742470	     -8.27345946	    -11.08034124
      4.71500000	     -0.38999071	      5.13636578	      0.59794547	     -0.39109060	      0.94157360	      0.25841355	     24.76925209	     -5.12110104	     -1.58658943	    -59.75708290	     13.99279217	    -16.24347345	      0.00000000	      7.65675814	     12.58788548	      9.56688974	    -20.66217157	     17.06730822	    -20.18512367	      0.00000000	     -9.89694058	     -7.95437365	    -11.29116904
      4.72000000	     -0.34717698	      4.95430059	      0.82254375	     -0.38412476	      0.94231026	      0.25805567	     25.11256557	     -5.00035621	     -1.78949308	    -58.22284883	     14.05789694	    -16.26552642	      0.00000000	      6.79369827	     12.43408112	     10.20279138	    -20.09256253	     17.02351478	    -20.56896971	      0.00000000	     -9.96404747	     -7.66762774	    -11.50682946
      4.72500000	     -0.31255695	      4.78420770	      1.04459246	     -0.37717430	      0.94293877	      0.25768480	     25.43391897	     -4.89945572	     -1.99805847	    -56.61283720	     14.10621885	    -16.28486303	      0.00000000	      5.95077543	     12.28250613	     10.81389862	    -19.53618995	     16.98525506	    -20.93900373	      0.00000000	    -10.02139387	     -7.38639571	    -11.71743666
      4.73000000	     -0.29854110	      4.61604242	      1.27185699	     -0.37023112	      0.94345319	      0.25734428	     25.74129529	     -4.79899425	     -2.20407805	    -54.92320676	     14.12695605	    -16.30528920	      0.00000000	      5.13960209	     12.11892563	     11.40367502	    -18.99238128	     16.96883460	    -21.27968538	      0.00000000	    -10.05374429	     -7.11326284	    -11.92954004
      4.73500000	     -0.25481444	      4.47455842	      1.47884669	     -0.36328797	      0.94391219	      0.25698999	     25.98691952	     -4.73132528	     -2.39272227	    -53.16874102	     14.17594873	    -16.23978342	      0.00000000	      4.29055820	     11.97733683	     12.00336135	    -18.43008398	     16.90744008	    -21.68089561	      0.00000000	    -10.12415931	     -6.86660149	    -12.11928989
      4.74000000	     -0.29530332	      4.32312366	      1.71189580	     -0.35640149	      0.94417762	      0.25668721	     26.29294875	     -4.64771818	     -2.58375029	    -51.34292505	     14.09334823	    -16.28449889	      0.00000000	      3.56640294	     11.80734018	     12.54105418	    -17.92426371	     16.93928790	    -21.92719852	      0.00000000	    -10.10555172	     -6.61901671	    -12.35385433
      4.74500000	     -0.29809193	      4.18793581	      1.93411724	     -0.34950304	      0.94440831	      0.25638816	     26.52335830	     -4.58936065	     -2.77677045	    -49.45266866	     14.03404214	    -16.24355195	      0.00000000	      2.79598466	     11.64814056	     13.09649633	    -17.40466021	     16.93099252	    -22.23710380	      0.00000000	    -10.13301515	     -6.39062330	    -12.57170462
      4.75000000	     -0.31009204	      4.07085253	      2.14936344	     -0.34262223	      0.94453581	      0.25610180	     26.73517140	     -4.54765968	     -2.94681431	    -47.50785007	     13.94293476	    -16.17852675	      0.00000000	      2.04270429	     11.49999504	     13.63298007	    -16.89048332	     16.92042750	    -22.54458468	      0.00000000	    -10.15554158	     -6.17898326	    -12.78948514
      4.75500000	     -0.36545739	      3.95616677	      2.35199876	     -0.33574112	      0.94450890	      0.25584930	     26.96622803	     -4.51493150	     -3.13301849	    -45.50922779	     13.83205199	    -16.08858505	      0.00000000	      1.35952274	     11.34570224	     14.08610905	    -16.40967450	     16.95116559	    -22.79540399	      0.00000000	    -10.12588987	     -5.98292533	    -12.93451080
      4.76000000	     -0.34501000	      3.88178946	      2.56343379	     -0.32887999	      0.94451362	      0.25556790	     27.07998475	     -4.51862446	     -3.26862513	    -43.46593562	     13.69167500	    -15.96624402	      0.00000000	      0.57697372	     11.22948054	     14.62844365	    -15.90005335	     16.89951102	    -23.14252414	      0.00000000	    -10.20052729	     -5.81311486	    -13.21129248
      4.76500000	     -0.38061273	      3.80974340	      2.74957366	     -0.32200804	      0.94434554	      0.25534607	     27.23714098	     -4.52925486	     -3.42715958	    -41.39206420	     13.51185631	    -15.81843215	      0.00000000	     -0.12571155	     11.10699274	     15.07747925	    -15.41614797	     16.90222838	    -23.41821155	      0.00000000	    -10.20525081	     -5.66526431	    -13.41728195
      4.77000000	     -0.41062642	      3.75591451	      2.93410526	     -0.31513338	      0.94410071	      0.25513687	     27.36115777	     -4.56531229	     -3.60020910	    -39.28829440	     13.31672119	    -15.64092318	      0.00000000	     -0.82586724	     10.99688975	     15.50033295	    -14.94595811	     16.90345682	    -23.67799030	      0.00000000	    -10.22374878	     -5.53639581	    -13.62008027
      4.77500000	     -0.43136874	      3.72362997	      3.11490731	     -0.30826269	      0.94377162	      0.25493662	     27.45081931	     -4.62492080	     -3.77068330	    -37.16485686	     13.13386216	    -15.41653144	      0.00000000	     -1.52334035	     10.90602050	     15.88464897	    -14.49523836	     16.90528711	    -23.94519079	      0.00000000	    -10.26009648	     -5.43300490	    -13.82274057
      4.78000000	     -0.45393584	      3.71152229	      3.28238463	     -0.30136841	      0.94335046	      0.25475643	     27.52993939	     -4.70965750	     -3.96340168	    -35.04617749	     12.94526788	    -15.14213287	      0.00000000	     -2.21431359	     10.83067051	     16.22666810	    -14.05122703	     16.92190288	    -24.18142458	      0.00000000	    -10.29462208	     -5.35425305	    -14.02083189
      4.78500000	     -0.50657595	      3.71030359	      3.44157708	     -0.29443346	      0.94279524	      0.25460203	     27.63383848	     -4.81447129	     -4.21274766	    -32.94478121	     12.75548318	    -14.83075681	      0.00000000	     -2.86081721	     10.76109188	     16.50447095	    -13.63183194	     16.99590074	    -24.33417787	      0.00000000	    -10.28969797	     -5.29487951	    -14.17594962
      4.79000000	     -0.51485003	      3.73268475	      3.60117988	     -0.28747114	      0.94221997	      0.25444672	     27.67752518	     -4.94355994	     -4.47220513	    -30.86930149	     12.60891912	    -14.43949690	      0.00000000	     -3.55356812	     10.70947149	     16.75824361	    -13.21670533	     17.05427607	    -24.48728644	      0.00000000	    -10.34433447	     -5.25595149	    -14.37933173
      4.79500000	     -0.53371921	      3.77419332	      3.74861953	     -0.28050660	      0.94153328	      0.25434070	     27.73666942	     -5.08808804	     -4.75501109	    -28.84113445	     12.50140541	    -13.97762464	      0.00000000	     -4.21747129	     10.67381307	     16.94615591	    -12.83040879	     17.14336381	    -24.59618634	      0.00000000	    -10.39201068	     -5.24798895	    -14.55837881
      4.80000000	     -0.50132189	      3.84581161	      3.89576972	     -0.27351006	      0.94084574	      0.25426137	     27.74958318	     -5.26400672	     -5.08570729	    -26.88588189	     12.43767118	    -13.43594258	      0.00000000	     -4.94447221	     10.65562786	     17.12976261	    -12.43604478	     17.23080836	    -24.66529526	      0.00000000	    -10.50571744	     -5.27292878	    -14.79034669
      4.80500000	     -0.48406048	      3.91837140	      4.03155990	     -0.26647291	      0.94005337	      0.25421125	     27.78748691	     -5.43461014	     -5.45155915	    -25.00124094	     12.42371223	    -12.82327467	      0.00000000	     -5.63420364	     10.63697640	     17.25167051	    -12.08436583	     17.36200721	    -24.67375443	      0.00000000	    -10.59832240	     -5.30218044	    -14.98214679
      4.81000000	     -0.47293970	      3.98368215	      4.15955327	     -0.25938172	      0.93918283	      0.25418974	     27.84335669	     -5.59155086	     -5.86533633	    -23.20024267	     12.45066683	    -12.14450662	      0.00000000	     -6.30004162	     10.60675446	     17.32276069	    -11.77082258	     17.54074529	    -24.61072465	      0.00000000	    -10.67792530	     -5.32471724	    -15.14301396
      4.81500000	     -0.43098268	      4.05951576	      4.29143947	     -0.25228568	      0.93829865	      0.25421142	     27.88602283	     -5.75305582	     -6.31001572	    -21.51031926	     12.52028622	    -11.37395909	      0.00000000	     -6.98962937	     10.57416316	     17.36459643	    -11.47591728	     17.75237628	    -24.46830800	      0.00000000	    -10.80314178	     -5.36292311	    -15.33594937
